<svg xmlns="http://www.w3.org/2000/svg" xmlns:xlink="http://www.w3.org/1999/xlink"><symbol id="arr-left"><path d="M24.052 5.433a.626.626 0 00-.626-.626h-21.3L5.87 1.063a.62.62 0 000-.88.62.62 0 00-.88 0L.183 4.99a.62.62 0 000 .88l4.807 4.807c.122.122.28.183.443.183a.622.622 0 00.443-1.063L2.132 6.054h21.305a.62.62 0 00.615-.621z"/></symbol><symbol id="arr-right"><path d="M.615 6.054H21.92l-3.744 3.743a.622.622 0 00.443 1.063.62.62 0 00.443-.183l4.807-4.807a.62.62 0 000-.88L19.062.183a.62.62 0 00-.88 0 .62.62 0 000 .88l3.744 3.744H.626A.626.626 0 000 5.433c0 .346.28.621.615.621z"/></symbol><symbol id="arr-up"><path fill="#8B8B8B" d="M133.484 591.483c8.507 0 15.388-6.881 15.388-15.388V52.293l92.075 92.075a15.253 15.253 0 0021.643 0 15.253 15.253 0 000-21.643L144.368 4.504a15.253 15.253 0 00-21.643 0L4.504 122.725C1.501 125.728 0 129.606 0 133.609s1.501 7.881 4.504 10.884a15.253 15.253 0 0021.643 0l92.075-92.075v523.928c0 8.257 6.755 15.137 15.262 15.137z"/></symbol><symbol id="baus_logo_press"><path d="M54.916 14.701c0-2.401-.649-4.659-1.946-6.774C49.606 2.691 43.72.072 35.313.072H0v49.223h35.313c8.839 0 14.846-2.762 18.017-8.288 1.056-1.873 1.585-3.866 1.585-5.981 0-3.987-1.729-7.326-5.189-10.018 3.46-2.786 5.19-6.222 5.19-10.307zm-18.305 14.63c2.306 0 4.396.386 6.27 1.153 2.498 1.058 3.748 2.595 3.748 4.612 0 1.971-1.25 3.484-3.748 4.54-1.826.721-3.916 1.081-6.27 1.081H8.576V8.647h28.035c2.402 0 4.54.409 6.414 1.226 2.402 1.106 3.603 2.691 3.603 4.756 0 2.115-1.201 3.725-3.603 4.829-1.874.865-4.012 1.297-6.414 1.297h-22.99v8.576h22.99zM92.462 1.585C91.117.528 89.82 0 88.571 0c-1.153 0-2.45.553-3.892 1.657-1.202.962-2.139 2.018-2.811 3.171L55.131 49.294h11.026l22.197-36.466 8.576 14.197H83.886l-5.189 8.504h23.35l8.288 13.765 11.027.072L95.273 4.828a11.32 11.32 0 00-2.811-3.243zM166.405 27.241c0 5.237-1.635 8.913-4.9 11.026-2.596 1.683-6.68 2.523-12.252 2.523-6.68 0-11.34-.601-13.982-1.802-4.084-1.921-6.125-5.837-6.125-11.747V.144h-8.576v27.098c0 7.928 2.379 13.718 7.135 17.368 4.18 3.171 10.377 4.757 18.594 4.757h2.955c8.215 0 14.414-1.586 18.594-4.757 4.756-3.65 7.135-9.44 7.135-17.368V.144h-8.576v27.097zM235.95 22.845c-3.172-2.738-7.135-4.107-11.891-4.107h-23.207c-1.633 0-3.027-.433-4.18-1.297-1.152-.865-1.73-2.091-1.73-3.676 0-1.537.578-2.763 1.73-3.676 1.152-.912 2.547-1.369 4.18-1.369h37.115V.144h-37.115c-4.277 0-7.855 1.178-10.738 3.531-3.074 2.548-4.611 5.886-4.611 10.017 0 4.18 1.537 7.544 4.611 10.09 2.883 2.354 6.461 3.531 10.738 3.531h23.207c2.352 0 4.371.504 6.053 1.514 2.018 1.201 3.027 2.907 3.027 5.116 0 2.211-.986 3.964-2.955 5.262-1.73 1.057-3.773 1.585-6.125 1.585H186.51v8.576h37.549c4.756 0 8.719-1.321 11.891-3.964 3.314-2.834 4.973-6.582 4.973-11.242 0-4.66-1.658-8.432-4.973-11.315zM187.827.252h-8.67v9.968h2.576c.514-6.076 6.094-9.968 6.094-9.968z"/></symbol><symbol id="icon-doc" viewBox="0 0 32 32"><path d="M6 3v26h20V9.594l-.281-.313-6-6L19.406 3zm2 2h10v6h6v16H8zm12 1.438L22.563 9H20zM11 13v2h10v-2zm0 4v2h10v-2zm0 4v2h10v-2z"/></symbol><symbol id="phone" viewBox="0 0 512 512"><path d="M436.992 74.953c-99.989-99.959-262.08-99.935-362.039.055s-99.935 262.08.055 362.039 262.08 99.935 362.039-.055a256 256 0 00-.055-362.039zm-49.289 281.652l-.034.034v-.085l-12.971 12.885a68.267 68.267 0 01-64.427 18.432 226.834 226.834 0 01-65.877-29.525 304.371 304.371 0 01-51.968-41.899 306.71 306.71 0 01-38.827-47.104 238.907 238.907 0 01-29.184-59.051 68.265 68.265 0 0117.067-69.717l15.189-15.189c4.223-4.242 11.085-4.257 15.326-.034l.034.034 47.957 47.957c4.242 4.223 4.257 11.085.034 15.326l-.034.034-28.16 28.16c-8.08 7.992-9.096 20.692-2.389 29.867a329.334 329.334 0 0033.707 39.339 327.314 327.314 0 0044.373 37.291c9.167 6.394 21.595 5.316 29.525-2.56l27.221-27.648c4.223-4.242 11.085-4.257 15.326-.034l.034.034 48.043 48.128c4.243 4.222 4.258 11.083.035 15.325z"/></symbol><symbol id="preim_icon1"><path fill="#A5CC00" d="M0 218.124v-13.998l17.188-.754c.11-1.679.293-3.135.289-4.591-.071-22.482-.252-44.963-.238-67.444.025-40.64.145-81.281.272-121.921.023-7.461 1.996-9.263 9.61-9.263L378.938.152c.999 0 2.258-.386 2.95.076 2.164 1.442 4.651 2.864 5.974 4.953 1.014 1.601.576 4.199.577 6.354.022 61.956.018 123.912.018 185.867v6.57h18.135v14.153L0 218.124zM255.814 15.135H150.282v188.63h105.532V15.135zm-223.006-.11c-.113 1.894-.293 3.515-.293 5.135-.014 59.434.027 118.867-.097 178.301-.009 4.152 1.176 5.337 5.321 5.316 31.137-.16 62.276-.084 93.414-.099 1.465-.001 2.929-.165 4.505-.26V15.026l-102.85-.001zm237.423 188.374h102.82V14.981h-102.82v188.418z"/></symbol><symbol id="preim_icon2" viewBox="361.628 268.943 32.893 62.162"><path fill="#A5CC00" d="M368.704 331.053a1.23 1.23 0 001.528-.83l4.145-14.001c.186.06.372.139.556.194 5.761 1.705 10.796.257 14.32-4.176 7.61-9.57 6.861-30.764-1.513-42.788-.022-.03-.053-.045-.076-.072a1.094 1.094 0 00-.184-.176 1.252 1.252 0 00-.185-.125 1.332 1.332 0 00-.218-.085 1.134 1.134 0 00-.23-.048 1.212 1.212 0 00-.225.003 1.258 1.258 0 00-.248.046c-.035.01-.072.006-.107.02-13.569 5.53-25.735 22.901-24.561 35.071.544 5.635 3.979 9.591 9.74 11.297.182.054.384.09.571.14l-4.145 14.001c-.191.652.18 1.336.832 1.529zm-4.551-27.202c-1.039-10.767 9.994-26.626 22.114-32.126 7.172 11.21 7.794 30.519 1.061 38.985-3.039 3.819-7.169 4.848-12.252 3.143l2.11-7.127 7.499-1.822a1.23 1.23 0 00.903-1.485 1.228 1.228 0 00-1.485-.903l-6.111 1.486 4.564-15.417a1.23 1.23 0 00-2.358-.698l-2.326 7.858-2.688-4.54a1.228 1.228 0 10-2.116 1.252l3.85 6.505-4.202 14.193c-5.195-1.339-8.093-4.447-8.563-9.304z"/></symbol><symbol id="preim_icon3"><circle cx="1.786" cy="7.205" r=".5"/><circle cx="4.25" cy="9.94" r=".5"/><circle cx="7.781" cy="8.94" r=".5"/><circle cx="8.531" cy="12.596" r=".5"/><circle cx="8.781" cy="18.034" r=".5"/><circle cx="2.438" cy="11.596" r=".5"/><circle cx="4.094" cy="15.096" r=".5"/><circle cx=".5" cy="16.753" r=".5"/><circle cx="2.438" cy="20.253" r=".5"/><path d="M5.838 22.051l5.333 4.103V0L5.838 4.359v17.692zm1-17.217l3.333-2.725v22.013l-3.333-2.563V4.834zM15.894 3.975c1.109.06 1.789.846 2.335 1.478.101.116.194.224.283.321.663.715 1.715 1.496 3.146 1.496.245 0 .503-.023.771-.074 1.89-.354 2.497-1.53 2.522-1.58l-.891-.454c-.017.032-.441.793-1.814 1.051-1.387.256-2.395-.466-2.999-1.12a9.958 9.958 0 01-.261-.295c-.599-.693-1.504-1.74-3.037-1.822-1.833-.109-2.98 1.65-3.029 1.724l.836.55c.009-.013.93-1.347 2.138-1.275zM24.8 21.942c-.017.032-.441.794-1.813 1.052-1.387.258-2.396-.466-3-1.119a9.958 9.958 0 01-.261-.295c-.599-.693-1.503-1.74-3.037-1.822-1.81-.098-2.979 1.65-3.028 1.725l.836.549c.009-.013.968-1.329 2.138-1.275 1.11.06 1.789.846 2.335 1.478.1.116.194.225.283.321.663.715 1.714 1.495 3.146 1.495.246 0 .503-.022.771-.073 1.889-.354 2.496-1.53 2.521-1.58l-.891-.456zM16.148 12.666c.076.116.147.226.216.322.71 1.014 1.59 1.547 2.525 1.547.205 0 .414-.025.623-.077 1.5-.371 1.97-1.57 1.989-1.621l-.934-.359c-.013.031-.32.768-1.296 1.009-.76.189-1.46-.174-2.09-1.073-.063-.089-.128-.189-.198-.296-.465-.71-1.169-1.785-2.416-1.873-1.523-.124-2.402 1.698-2.44 1.775l.895.446c.167-.333.805-1.26 1.475-1.225.754.054 1.251.814 1.651 1.425z"/></symbol><symbol id="preim_icon4" viewBox="122.4 112.95 367.2 420.75"><path d="M459 533.7H153c-16.83 0-30.6-13.77-30.6-30.6V311.85c0-16.83 13.77-30.6 30.6-30.6h306c16.83 0 30.6 13.77 30.6 30.6V503.1c0 16.83-13.77 30.6-30.6 30.6zM153 296.55c-8.415 0-15.3 6.885-15.3 15.3V503.1c0 8.415 6.885 15.3 15.3 15.3h306c8.415 0 15.3-6.885 15.3-15.3V311.85c0-8.415-6.885-15.3-15.3-15.3H153z"/><path d="M420.75 288.9h-15.3V151.2c0-13.005-9.945-22.95-22.95-22.95h-153c-13.005 0-22.95 9.945-22.95 22.95v137.7h-15.3V151.2c0-21.42 16.83-38.25 38.25-38.25h153c21.42 0 38.25 16.83 38.25 38.25v137.7z"/><path d="M390.15 288.9h-15.3V168.03c0-5.355-3.825-9.18-9.18-9.18H246.33c-5.355 0-9.18 3.825-9.18 9.18V288.9h-15.3V168.03c0-13.77 10.71-24.48 24.48-24.48h119.34c13.77 0 24.48 10.71 24.48 24.48V288.9zM130.05 449.55h351.9v15.3h-351.9z"/><path d="M193.144 531.112l-68.698-68.697 10.819-10.819 68.698 68.698zM246.694 531.113l-68.698-68.698 10.819-10.818 68.697 68.697zM300.244 531.113l-68.698-68.698 10.819-10.819 68.698 68.698zM353.794 531.113l-68.698-68.697 10.819-10.82 68.697 68.699zM407.344 531.113l-68.698-68.698 10.819-10.818 68.698 68.697zM460.893 531.113l-68.698-68.698 10.819-10.818 68.698 68.697zM476.889 501.208l-38.406-38.405 10.82-10.819 38.405 38.406z"/></symbol></svg>